<svg width="68" height="67" viewBox="0 0 68 67" fill="none" xmlns="http://www.w3.org/2000/svg">
<path d="M32.0875 47.4583H36.3375V35.8729H48.1667V31.6854H36.3375V19.5417H32.0875V31.6854H19.8333V35.8729H32.0875V47.4583ZM34.0188 61.4167C30.1119 61.4167 26.4404 60.6839 23.0042 59.2182C19.5681 57.7526 16.5632 55.7519 13.9896 53.2162C11.416 50.6804 9.38541 47.7179 7.89791 44.3288C6.41041 40.9397 5.66666 37.3185 5.66666 33.4651C5.66666 29.6117 6.41041 25.9905 7.89791 22.6014C9.38541 19.2123 11.416 16.2615 13.9896 13.749C16.5632 11.2365 19.5698 9.24741 23.0096 7.78178C26.4492 6.31616 30.1245 5.58334 34.0354 5.58334C37.9463 5.58334 41.6216 6.31616 45.0613 7.78178C48.501 9.24741 51.4958 11.2365 54.0458 13.749C56.5958 16.2615 58.6146 19.216 60.1021 22.6125C61.5896 26.009 62.3333 29.632 62.3333 33.4814C62.3333 37.3309 61.5896 40.9484 60.1021 44.334C58.6146 47.7197 56.5958 50.6761 54.0458 53.2033C51.4958 55.7305 48.4972 57.7312 45.05 59.2054C41.6028 60.6796 37.9257 61.4167 34.0188 61.4167ZM34.0354 57.2292C40.7174 57.2292 46.3958 54.9144 51.0708 50.2849C55.7458 45.6554 58.0833 40.0488 58.0833 33.4651C58.0833 26.8814 55.7503 21.2865 51.0841 16.6802C46.418 12.074 40.7233 9.77084 34 9.77084C27.3417 9.77084 21.6632 12.0696 16.9646 16.6671C12.266 21.2646 9.91666 26.8756 9.91666 33.5C9.91666 40.0604 12.266 45.6554 16.9646 50.2849C21.6632 54.9144 27.3535 57.2292 34.0354 57.2292Z" fill="black"/>
</svg>
