<svg width="43" height="24" viewBox="0 0 43 24" fill="none" xmlns="http://www.w3.org/2000/svg">
<path d="M11.5 23.5C8.30556 23.5 5.59028 22.3576 3.35417 20.0729C1.11806 17.7882 0 15.0139 0 11.75C0 8.48611 1.11806 5.71181 3.35417 3.42708C5.59028 1.14236 8.30556 0 11.5 0H30.6667C33.8611 0 36.5764 1.14236 38.8125 3.42708C41.0486 5.71181 42.1667 8.48611 42.1667 11.75C42.1667 15.0139 41.0486 17.7882 38.8125 20.0729C36.5764 22.3576 33.8611 23.5 30.6667 23.5H11.5ZM11.5 20.5625H30.6667C33.0625 20.5625 35.099 19.7057 36.776 17.9922C38.4531 16.2786 39.2917 14.1979 39.2917 11.75C39.2917 9.30208 38.4531 7.22135 36.776 5.50781C35.099 3.79427 33.0625 2.9375 30.6667 2.9375H11.5C9.10417 2.9375 7.06771 3.79427 5.39063 5.50781C3.71354 7.22135 2.875 9.30208 2.875 11.75C2.875 14.1979 3.71354 16.2786 5.39063 17.9922C7.06771 19.7057 9.10417 20.5625 11.5 20.5625ZM11.4493 16.6948C12.7928 16.6948 13.9358 16.2143 14.8781 15.2534C15.8205 14.2925 16.2917 13.1256 16.2917 11.7529C16.2917 10.3801 15.8214 9.21233 14.881 8.24948C13.9405 7.28663 12.7985 6.80521 11.4549 6.80521C10.1114 6.80521 8.9684 7.28567 8.02604 8.24659C7.08368 9.20751 6.6125 10.3744 6.6125 11.7471C6.6125 13.1199 7.08274 14.2877 8.02321 15.2505C8.96369 16.2134 10.1057 16.6948 11.4493 16.6948Z" fill="black"/>
</svg>
