<svg width="243" height="193" viewBox="0 0 243 193" fill="none" xmlns="http://www.w3.org/2000/svg">
<g id="Vector" filter="url(#filter0_d_2_32)">
<path d="M35.3542 141.25C31.1535 141.25 27.3637 139.92 23.9849 137.261C20.6061 134.602 18.9167 131.619 18.9167 128.313V21.7937L4.12291 10.15L15.9031 0.878124L236.988 174.888L225.207 184.159L170.69 141.25H35.3542ZM238.083 157.206L201.373 128.313H221.646V16.1875H58.9146L42.4771 3.25H221.646C226.029 3.25 229.865 4.57969 233.152 7.23906C236.44 9.89844 238.083 12.8812 238.083 16.1875V157.206ZM35.3542 128.313H154.252L126.856 106.75H62.75V93.8125H110.419L91.2417 78.7188H62.75V65.7813H74.8042L35.3542 34.7313V128.313ZM173.977 106.75L157.54 93.8125H194.25V106.75H173.977ZM138.363 78.7188L121.925 65.7813H194.25V78.7188H138.363ZM102.748 50.6875L86.3104 37.75H194.25V50.6875H102.748Z" fill="url(#paint0_linear_2_32)" shape-rendering="crispEdges"/>
<path d="M19.4167 21.7937V21.551L19.2259 21.4008L4.93134 10.15L15.9031 1.51442L236.179 174.888L225.207 183.523L170.999 140.857L170.863 140.75H170.69H35.3542C31.2685 140.75 27.5871 139.46 24.2941 136.868C20.9965 134.273 19.4167 131.422 19.4167 128.313V21.7937ZM43.9208 3.75H221.646C225.919 3.75 229.643 5.04322 232.838 7.6278C236.043 10.221 237.583 13.0726 237.583 16.1875V156.176L202.817 128.813H221.646H222.146V128.313V16.1875V15.6875H221.646H59.0877L43.9208 3.75ZM34.8542 128.313V128.813H35.3542H154.252H155.696L154.561 127.92L127.165 106.357L127.029 106.25H126.856H63.25V94.3125H110.419H111.862L110.728 93.4196L91.5509 78.3259L91.4148 78.2188H91.2417H63.25V66.2813H74.8042H76.2479L75.1134 65.3884L35.6634 34.3384L34.8542 33.7014V34.7313V128.313ZM174.15 106.25L158.983 94.3125H193.75V106.25H174.15ZM193.75 78.2188H138.536L123.369 66.2813H193.75V78.2188ZM193.75 50.1875H102.921L87.7541 38.25H193.75V50.1875Z" stroke="#F3DBDB" shape-rendering="crispEdges"/>
</g>
<defs>
<filter id="filter0_d_2_32" x="0.12291" y="0.878124" width="241.96" height="191.281" filterUnits="userSpaceOnUse" color-interpolation-filters="sRGB">
<feFlood flood-opacity="0" result="BackgroundImageFix"/>
<feColorMatrix in="SourceAlpha" type="matrix" values="0 0 0 0 0 0 0 0 0 0 0 0 0 0 0 0 0 0 127 0" result="hardAlpha"/>
<feOffset dy="4"/>
<feGaussianBlur stdDeviation="2"/>
<feComposite in2="hardAlpha" operator="out"/>
<feColorMatrix type="matrix" values="0 0 0 0 0.658333 0 0 0 0 0.658333 0 0 0 0 0.658333 0 0 0 0.71 0"/>
<feBlend mode="normal" in2="BackgroundImageFix" result="effect1_dropShadow_2_32"/>
<feBlend mode="normal" in="SourceGraphic" in2="effect1_dropShadow_2_32" result="shape"/>
</filter>
<linearGradient id="paint0_linear_2_32" x1="121.103" y1="0.878124" x2="121.103" y2="184.159" gradientUnits="userSpaceOnUse">
<stop stop-color="#DEDEDE"/>
<stop offset="1" stop-color="#CACACA" stop-opacity="0"/>
</linearGradient>
</defs>
</svg>
