<svg width="37" height="32" viewBox="0 0 37 32" fill="none" xmlns="http://www.w3.org/2000/svg">
<path d="M2.75 31.5C2.01667 31.5 1.375 31.2375 0.825 30.7125C0.275 30.1875 0 29.575 0 28.875V12.6438H2.75V28.875H23.4667V31.5H2.75ZM8.29583 26.25C7.5625 26.25 6.91319 25.9875 6.34792 25.4625C5.78264 24.9375 5.5 24.325 5.5 23.625V7.39375H8.25V23.625H29.0125V26.25H8.29583ZM13.75 21C13.0167 21 12.375 20.7375 11.825 20.2125C11.275 19.6875 11 19.075 11 18.375V2.625C11 1.925 11.275 1.3125 11.825 0.7875C12.375 0.2625 13.0167 0 13.75 0H33.9167C34.65 0 35.2917 0.2625 35.8417 0.7875C36.3917 1.3125 36.6667 1.925 36.6667 2.625V18.375C36.6667 19.075 36.3917 19.6875 35.8417 20.2125C35.2917 20.7375 34.65 21 33.9167 21H13.75ZM13.75 18.375H33.9167V5.3375H13.75V18.375Z" fill="black"/>
</svg>
