<svg width="28" height="37" viewBox="0 0 28 37" fill="none" xmlns="http://www.w3.org/2000/svg">
<path d="M10.6081 34.2919L10.5091 33.9208H10.125H9.46875C8.85634 33.9208 8.32371 33.7019 7.84956 33.2383C7.37549 32.7748 7.15625 32.2591 7.15625 31.6708V25.1167V24.8424L6.92489 24.695C4.92757 23.4226 3.35973 21.7998 2.21376 19.8241C1.07253 17.8567 0.5 15.6828 0.5 13.2917C0.5 9.72883 1.7662 6.71818 4.3105 4.23042C6.85524 1.74223 9.93968 0.5 13.5938 0.5C17.2478 0.5 20.3323 1.74223 22.877 4.23042C25.4213 6.71818 26.6875 9.72883 26.6875 13.2917C26.6875 15.6828 26.115 17.8567 24.9737 19.8241C23.8278 21.7998 22.2599 23.4226 20.2626 24.695L20.0312 24.8424V25.1167V31.6708C20.0312 32.2591 19.812 32.7748 19.3379 33.2383C18.8638 33.7019 18.3312 33.9208 17.7188 33.9208H17.0625H16.6784L16.5794 34.2919C16.426 34.8668 16.0936 35.3131 15.5568 35.6459C15.0045 35.9884 14.3558 36.1667 13.5938 36.1667C12.8317 36.1667 12.183 35.9884 11.6307 35.6459C11.0939 35.3131 10.7615 34.8668 10.6081 34.2919ZM8.96875 31.6708V32.1708H9.46875H17.7188H18.2188V31.6708V29.6542V29.1542H17.7188H9.46875H8.96875V29.6542V31.6708ZM8.96875 27.8208V28.3208H9.46875H17.7188H18.2188V27.8208V25.9875V25.4875H17.7188H9.46875H8.96875V25.9875V27.8208ZM8.83931 23.6924L8.93819 23.7375H9.04688H12.5156H13.0156V23.2375V16.9583V16.7479L12.8652 16.6008L8.91831 12.7417L9.65625 12.0201L13.2442 15.5283L13.5938 15.8701L13.9433 15.5283L17.5312 12.0201L18.2692 12.7417L14.3223 16.6008L14.1719 16.7479V16.9583V23.2375V23.7375H14.6719H18.1406H18.2493L18.3482 23.6924C20.3148 22.795 21.896 21.3991 23.0866 19.5173C24.2787 17.6332 24.875 15.5541 24.875 13.2917C24.875 10.1962 23.7838 7.5685 21.6074 5.44041C19.4315 3.31285 16.7494 2.25 13.5938 2.25C10.4381 2.25 7.75604 3.31285 5.58013 5.44041C3.40368 7.5685 2.3125 10.1962 2.3125 13.2917C2.3125 15.5541 2.90878 17.6332 4.10091 19.5173C5.29153 21.3991 6.87274 22.795 8.83931 23.6924Z" fill="black" stroke="black"/>
</svg>
